<svg height="512pt" viewBox="0 -77 512 512" width="512pt" xmlns="http://www.w3.org/2000/svg"><path d="m256.933594 261.542969v14.945312c4.121094 0 7.472656 3.351563 7.472656 7.472657h14.945312c0-12.363282-10.058593-22.417969-22.417968-22.417969zm0 0"/><path d="m406.386719 119.5625h14.945312v14.945312h-14.945312zm0 0"/><path d="m376.496094 119.5625h14.945312v14.945312h-14.945312zm0 0"/><path d="m346.605469 119.5625h14.945312v14.945312h-14.945312zm0 0"/><path d="m0 .203125h92.535156v14.945313h-92.535156zm0 0"/><path d="m137.371094.203125h90.667968v14.945313h-90.667968zm0 0"/><path d="m107.480469 0h14.945312v14.945312h-14.945312zm0 0"/><path d="m285.828125.203125h90.667969v14.945313h-90.667969zm0 0"/><path d="m421.332031.203125h90.667969v14.945313h-90.667969zm0 0"/><path d="m391.441406 0h14.945313v14.945312h-14.945313zm0 0"/><path d="m406.386719 29.890625h-14.945313v52.308594h-269.015625v-52.308594h-14.945312v52.308594h-52.308594v64.386719c0 10.257812 6.148437 19.105468 14.945313 23.066406v9.691406h14.945312v-7.472656h74.726562v7.472656h-37.363281v136.375c0 15.453125-12.570312 28.023438-28.023437 28.023438v14.945312c23.695312 0 42.96875-19.277344 42.96875-42.96875v-121.429688h37.363281v-22.417968h74.726563v15.742187c-11.652344 2.507813-21.191407 10.753907-25.515626 21.621094h-41.738281v89.671875h32.460938c6.171875 17.394531 22.78125 29.890625 42.265625 29.890625s36.097656-12.496094 42.265625-29.890625h32.460937v-89.671875h-41.738281c-4.324219-10.867187-13.863281-19.113281-25.515625-21.621094v-15.742187h74.726562v22.417968h37.363282v121.429688c0 23.691406 19.277344 42.96875 42.96875 42.96875v-14.945312c-15.453125 0-28.023438-12.570313-28.023438-28.023438v-136.375h-37.363281v-7.472656h74.726563v7.472656h14.945312v-9.691406c8.800781-3.960938 14.945312-12.808594 14.945312-23.066406v-64.386719h-52.308593zm-149.453125 283.960937c-16.480469 0-29.890625-13.410156-29.890625-29.890624 0-16.484376 13.410156-29.890626 29.890625-29.890626 16.480468 0 29.890625 13.40625 29.890625 29.890626 0 16.480468-13.410157 29.890624-29.890625 29.890624zm59.78125-29.890624h-14.945313c0-24.722657-20.113281-44.835938-44.835937-44.835938s-44.835938 20.113281-44.835938 44.835938h-14.945312v-59.78125h119.5625zm-43.941406-74.726563h-31.679688c3.773438-4.5625 9.472656-7.472656 15.839844-7.472656 6.367187 0 12.066406 2.910156 15.839844 7.472656zm170.976562-62.648437c0 5.703124-4.636719 10.339843-10.339844 10.339843h-236.257812v-14.945312h-14.945313v14.945312h-14.945312v-14.945312h-14.945313v14.945312h-14.945312v-14.945312h-14.945313v14.945312h-14.945312v-14.945312h-14.945313v14.945312h-12.078125c-5.699219 0-10.339843-4.636719-10.339843-10.339843v-49.441407h373.632812zm0 0"/><path d="m70.117188 194.289062h14.945312v14.945313h-14.945312zm0 0"/><path d="m428.804688 194.289062h14.945312v14.945313h-14.945312zm0 0"/></svg>