<svg height="512pt" viewBox="0 0 512 512" width="512pt" xmlns="http://www.w3.org/2000/svg"><g fill="#00ab94"><path d="m90 512c-49.625 0-90-40.375-90-90s40.375-90 90-90 90 40.375 90 90-40.375 90-90 90zm0-150c-33.085938 0-60 26.914062-60 60s26.914062 60 60 60 60-26.914062 60-60-26.914062-60-60-60zm0 0"/><path d="m422 512c-49.625 0-90-40.375-90-90s40.375-90 90-90 90 40.375 90 90-40.375 90-90 90zm0-150c-33.085938 0-60 26.914062-60 60s26.914062 60 60 60 60-26.914062 60-60-26.914062-60-60-60zm0 0"/><path d="m90 180c-49.625 0-90-40.375-90-90s40.375-90 90-90 90 40.375 90 90-40.375 90-90 90zm0-150c-33.085938 0-60 26.914062-60 60s26.914062 60 60 60 60-26.914062 60-60-26.914062-60-60-60zm0 0"/><path d="m422 180c-49.625 0-90-40.375-90-90s40.375-90 90-90 90 40.375 90 90-40.375 90-90 90zm0-150c-33.085938 0-60 26.914062-60 60s26.914062 60 60 60 60-26.914062 60-60-26.914062-60-60-60zm0 0"/></g><path d="m356.53125 335.332031c-33.609375-46.113281-33.621094-112.496093-.027344-158.621093l75.710938-75.710938c5.855468-5.859375 5.855468-15.355469 0-21.214844-5.859375-5.855468-15.355469-5.855468-21.214844 0l-75.710938 75.710938c-46.113281 33.582031-112.464843 33.582031-158.578124 0l-75.710938-75.710938c-5.855469-5.855468-15.355469-5.855468-21.214844 0-5.855468 5.859375-5.855468 15.355469 0 21.214844l75.710938 75.710938c33.582031 46.113281 33.582031 112.464843 0 158.578124l-75.601563 75.605469c-5.859375 5.855469-5.859375 15.351563 0 21.210938 2.925781 2.929687 6.265625 4.894531 10.105469 4.894531s8.179688-1.964844 11.105469-4.894531l75.605469-75.601563c46.097656-33.574218 112.429687-33.582031 158.542968-.027344l75.140625 76.128907c2.925781 2.929687 7.765625 4.394531 11.605469 4.394531s6.675781-1.464844 9.605469-4.394531c5.859375-5.859375 5.859375-15.355469 0-21.210938zm-46.445312-25.246093c-17.242188-5.871094-35.574219-8.957032-54.085938-8.957032s-36.84375 3.085938-54.085938 8.957032c5.871094-17.242188 8.957032-35.574219 8.957032-54.085938s-3.085938-36.84375-8.957032-54.085938c17.242188 5.871094 35.574219 8.957032 54.085938 8.957032s36.84375-3.085938 54.085938-8.957032c-5.871094 17.242188-8.957032 35.574219-8.957032 54.085938s3.085938 36.84375 8.957032 54.085938zm0 0" fill="#00465f"/><path d="m437 120c-3.839844 0-7.679688-1.464844-10.605469-4.394531l-30-30c-5.859375-5.859375-5.859375-15.355469 0-21.210938 5.855469-5.859375 15.355469-5.859375 21.210938 0l30 30c5.859375 5.855469 5.859375 15.351563 0 21.210938-2.925781 2.929687-6.765625 4.394531-10.605469 4.394531zm0 0" fill="#002c3c"/><path d="m407 452c-3.839844 0-7.679688-1.464844-10.605469-4.394531-5.859375-5.859375-5.859375-15.355469 0-21.210938l30-30c5.855469-5.859375 15.355469-5.859375 21.210938 0 5.859375 5.855469 5.859375 15.351563 0 21.210938l-30 30c-2.925781 2.929687-6.765625 4.394531-10.605469 4.394531zm0 0" fill="#002c3c"/><path d="m105 452c-3.839844 0-7.679688-1.464844-10.605469-4.394531l-30-30c-5.859375-5.859375-5.859375-15.355469 0-21.210938 5.855469-5.859375 15.355469-5.859375 21.210938 0l30 30c5.859375 5.855469 5.859375 15.351563 0 21.210938-2.925781 2.929687-6.765625 4.394531-10.605469 4.394531zm0 0" fill="#002c3c"/><path d="m75 120c-3.839844 0-7.679688-1.464844-10.605469-4.394531-5.859375-5.859375-5.859375-15.355469 0-21.210938l30-30c5.855469-5.859375 15.355469-5.859375 21.210938 0 5.859375 5.855469 5.859375 15.351563 0 21.210938l-30 30c-2.925781 2.929687-6.765625 4.394531-10.605469 4.394531zm0 0" fill="#002c3c"/></svg>