<?xml version="1.0" encoding="utf-8"?>
<!-- Generator: Adobe Illustrator 16.0.0, SVG Export Plug-In . SVG Version: 6.00 Build 0)  -->
<!DOCTYPE svg PUBLIC "-//W3C//DTD SVG 1.1//EN" "http://www.w3.org/Graphics/SVG/1.1/DTD/svg11.dtd">
<svg version="1.1" id="Capa_1" xmlns="http://www.w3.org/2000/svg" xmlns:xlink="http://www.w3.org/1999/xlink" x="0px" y="0px"
	 width="32px" height="32px" viewBox="0 0 32 32" enable-background="new 0 0 32 32" xml:space="preserve">
<g>
	<polygon fill="#FF9999" points="27,11 27,25 5,25 5,11 16,4 	"/>
</g>
<g>
	<path fill="#FFFFFF" d="M20,18v6h-8v-6H20 M21,17H11v8h10V17L21,17z"/>
</g>
<g>
	<rect x="10" y="11" fill="#FFFFFF" width="12" height="4"/>
</g>
<line fill="none" stroke="#FFFFFF" stroke-miterlimit="10" x1="11.5" y1="24.5" x2="20.5" y2="17.5"/>
<line fill="none" stroke="#FFFFFF" stroke-miterlimit="10" x1="20.5" y1="24.5" x2="11.5" y2="17.5"/>
<g>
	<path fill="#898989" d="M16,5.186l10,6.363V24H6V11.549L16,5.186 M16,4L5,11v14h22V11L16,4L16,4z"/>
</g>
<g>
	<path fill="#898989" d="M21,12v2H11v-2H21 M22,11H10v4h12V11L22,11z"/>
</g>
<g>
	<path fill="#7CFF78" d="M31,25.5c0,0,0,5.5-15,5.5S1,25.5,1,25.5c0-0.79,0.44-2.23,2.03-2.46C3.26,20.65,5.36,20,6.5,20
		s3.24,0.65,3.48,3.03c0.95,0.14,2.2,0.66,2.74,1.97h6.56c0.54-1.31,1.79-1.83,2.739-1.97C22.26,20.65,24.36,20,25.5,20
		s3.24,0.65,3.47,3.04C30.56,23.27,31,24.71,31,25.5z"/>
</g>
<path fill="none" stroke="#898989" stroke-linejoin="round" stroke-miterlimit="10" d="M3.5,23.5c0-3,3-3,3-3s3,0,3,3c0,0,3,0,3,3"
	/>
<path fill="none" stroke="#898989" stroke-linejoin="round" stroke-miterlimit="10" d="M1.5,25.5c0,0,0-2,2-2s2,2,2,2"/>
<path fill="none" stroke="#898989" stroke-linejoin="round" stroke-miterlimit="10" d="M28.5,23.5c0-3-3-3-3-3s-3,0-3,3c0,0-3,0-3,3
	"/>
<path fill="none" stroke="#898989" stroke-linejoin="round" stroke-miterlimit="10" d="M30.5,25.5c0,0,0-2-2-2s-2,2-2,2"/>
</svg>
